<svg xmlns="http://www.w3.org/2000/svg" version="1.1" xmlns:xlink="http://www.w3.org/1999/xlink" xmlns:svgjs="http://svgjs.dev/svgjs" viewBox="0 0 7.86190857532219 3.4143380722734102"><g transform="matrix(1,0,0,1,1.5242160064110952,1.3509190361367052)"><g transform="matrix(1,0,0,1,0,0)"><g clip-path="url(#SvgjsClipPath1002)"><path d=" M -1.0999999999999996 -0.9267030297256098 L 5.9134765625 -0.9267030297256098 L 5.9134765625 1.6392030297256097 L -1.0999999999999996 1.6392030297256097 Z" fill="#bb2d6b" transform="matrix(1,0,0,1,0,0)" fill-rule="nonzero"></path></g></g><g transform="matrix(1,0,0,1,0,0)"><path d=" M 0.0525 0.7125 Q 0.0525 0.674 0.053 0.616 Q 0.0535 0.558 0.0545 0.48925 Q 0.0555 0.42050000000000004 0.057 0.34850000000000003 Q 0.0585 0.2765 0.0605 0.20950000000000002 Q 0.0625 0.14249999999999996 0.0655 0.08899999999999997 Q 0.0895 0.08650000000000002 0.12225 0.08499999999999996 Q 0.155 0.08350000000000002 0.18675 0.08274999999999999 Q 0.2185 0.08199999999999996 0.2405 0.08174999999999999 Q 0.2625 0.08150000000000002 0.265 0.08150000000000002 Q 0.266 0.08350000000000002 0.27225 0.10550000000000004 Q 0.2785 0.12750000000000006 0.28825 0.16249999999999998 Q 0.298 0.1975 0.3095 0.2395 Q 0.321 0.28150000000000003 0.33275 0.325 Q 0.34450000000000003 0.3685 0.355 0.40725 Q 0.3655 0.446 0.37225 0.474 Q 0.379 0.502 0.381 0.5125 L 0.3625 0.515 Q 0.3675 0.501 0.3775 0.46900000000000003 Q 0.3875 0.437 0.40025 0.39475 Q 0.41300000000000003 0.35250000000000004 0.42625 0.30575 Q 0.4395 0.259 0.452 0.21500000000000002 Q 0.4645 0.17100000000000004 0.47375 0.13624999999999998 Q 0.483 0.10150000000000003 0.487 0.08350000000000002 Q 0.508 0.08350000000000002 0.5407500000000001 0.08450000000000002 Q 0.5735 0.08550000000000002 0.607 0.08750000000000002 Q 0.6405 0.08950000000000002 0.6625 0.09350000000000003 Q 0.6725 0.13849999999999996 0.6765 0.20975 Q 0.6805 0.281 0.6805 0.36050000000000004 Q 0.6805 0.4245 0.67875 0.49025 Q 0.677 0.556 0.674 0.6135 Q 0.671 0.671 0.6675 0.7105 Q 0.643 0.7105 0.6145 0.7095 Q 0.586 0.7085 0.56025 0.70675 Q 0.5345 0.7050000000000001 0.5195 0.7040000000000001 Q 0.522 0.6715 0.52425 0.6205 Q 0.5265 0.5695 0.528 0.515 Q 0.5295 0.48150000000000004 0.53025 0.4475 Q 0.531 0.41350000000000003 0.5317500000000001 0.3855 Q 0.5325 0.35750000000000004 0.533 0.342 Q 0.5275 0.3615 0.51775 0.39275 Q 0.508 0.42400000000000004 0.49575 0.4615 Q 0.4835 0.499 0.47025 0.53725 Q 0.457 0.5755 0.44475000000000003 0.61 Q 0.4325 0.6445000000000001 0.42325 0.6695 Q 0.41400000000000003 0.6945 0.40900000000000003 0.7045 Q 0.402 0.7050000000000001 0.38775 0.70525 Q 0.3735 0.7055 0.366 0.7055 Q 0.3525 0.7055 0.33825 0.70425 Q 0.324 0.7030000000000001 0.307 0.7010000000000001 Q 0.3055 0.6945 0.30075 0.674 Q 0.296 0.6535 0.2885 0.6235 Q 0.281 0.5935 0.27225 0.55775 Q 0.2635 0.522 0.2545 0.48475 Q 0.2455 0.4475 0.23650000000000002 0.41250000000000003 Q 0.2275 0.3775 0.22025 0.34900000000000003 Q 0.213 0.3205 0.20800000000000002 0.303 Q 0.2085 0.35050000000000003 0.20875 0.404 Q 0.209 0.4575 0.209 0.509 Q 0.209 0.5605 0.20925 0.60375 Q 0.2095 0.647 0.2095 0.6755 Q 0.2095 0.7040000000000001 0.2095 0.7100000000000001 Q 0.192 0.7105 0.165 0.71125 Q 0.138 0.7120000000000001 0.1085 0.71225 Q 0.079 0.7125 0.0525 0.7125 M 1.14049462890625 0.719 Q 1.09149462890625 0.716 1.04349462890625 0.71325 Q 0.9954946289062501 0.7105 0.94599462890625 0.7090000000000001 Q 0.90599462890625 0.7070000000000001 0.8644946289062501 0.70475 Q 0.82299462890625 0.7025 0.78249462890625 0.7005 Q 0.77899462890625 0.6165 0.77774462890625 0.53725 Q 0.77649462890625 0.458 0.77649462890625 0.3885 Q 0.77649462890625 0.277 0.77849462890625 0.19900000000000007 Q 0.78049462890625 0.121 0.78249462890625 0.08699999999999997 Q 0.87699462890625 0.0695 0.95749462890625 0.06125000000000003 Q 1.03799462890625 0.05300000000000005 1.09224462890625 0.051000000000000045 Q 1.14649462890625 0.049000000000000044 1.15999462890625 0.049000000000000044 Q 1.15999462890625 0.08150000000000002 1.15799462890625 0.11275000000000002 Q 1.15599462890625 0.14400000000000002 1.15299462890625 0.1785 L 0.9389946289062501 0.19600000000000006 Q 0.93849462890625 0.2025 0.93799462890625 0.21625 Q 0.93749462890625 0.23000000000000004 0.93724462890625 0.24625000000000002 Q 0.9369946289062501 0.2625 0.9369946289062501 0.2765 Q 0.9369946289062501 0.29050000000000004 0.9369946289062501 0.297 Q 0.94849462890625 0.297 0.96674462890625 0.29675 Q 0.98499462890625 0.2965 1.00674462890625 0.29600000000000004 Q 1.02849462890625 0.29550000000000004 1.05049462890625 0.29500000000000004 Q 1.07249462890625 0.29450000000000004 1.09174462890625 0.29425 Q 1.11099462890625 0.29400000000000004 1.12449462890625 0.29350000000000004 L 1.12249462890625 0.4305 Q 1.11599462890625 0.4305 1.09699462890625 0.42975 Q 1.07799462890625 0.429 1.05324462890625 0.428 Q 1.02849462890625 0.427 1.00349462890625 0.42625 Q 0.9784946289062499 0.4255 0.95949462890625 0.425 Q 0.94049462890625 0.4245 0.93349462890625 0.425 Q 0.9329946289062501 0.43 0.93274462890625 0.44175000000000003 Q 0.93249462890625 0.4535 0.93224462890625 0.46825000000000006 Q 0.93199462890625 0.483 0.93199462890625 0.49875 Q 0.93199462890625 0.5145 0.93174462890625 0.52775 Q 0.93149462890625 0.541 0.93149462890625 0.549 Q 0.93799462890625 0.549 0.96649462890625 0.5487500000000001 Q 0.99499462890625 0.5485 1.02499462890625 0.5485 Q 1.04999462890625 0.5485 1.07499462890625 0.5495 Q 1.0999946289062499 0.5505 1.12149462890625 0.55175 Q 1.14299462890625 0.553 1.15649462890625 0.554 Q 1.15649462890625 0.5740000000000001 1.1544946289062499 0.59975 Q 1.15249462890625 0.6255000000000001 1.15024462890625 0.6505000000000001 Q 1.14799462890625 0.6755 1.1452446289062501 0.69425 Q 1.14249462890625 0.713 1.14049462890625 0.719 M 1.50751025390625 0.728 Q 1.41851025390625 0.728 1.36776025390625 0.6880000000000001 Q 1.31701025390625 0.648 1.29201025390625 0.5740000000000001 Q 1.26901025390625 0.5075000000000001 1.26326025390625 0.41225 Q 1.25751025390625 0.317 1.25751025390625 0.19700000000000006 Q 1.25751025390625 0.1785 1.25801025390625 0.15849999999999997 Q 1.25851025390625 0.13849999999999996 1.25901025390625 0.11775000000000002 Q 1.25951025390625 0.09699999999999998 1.26026025390625 0.07750000000000001 Q 1.26101025390625 0.05800000000000005 1.26151025390625 0.04149999999999998 Q 1.28201025390625 0.039000000000000035 1.30301025390625 0.03775000000000006 Q 1.32401025390625 0.03649999999999998 1.34301025390625 0.03649999999999998 Q 1.36851025390625 0.03649999999999998 1.39351025390625 0.038000000000000034 Q 1.41851025390625 0.03949999999999998 1.43801025390625 0.04149999999999998 Q 1.43501025390625 0.07899999999999996 1.43251025390625 0.123 Q 1.43001025390625 0.16700000000000004 1.42876025390625 0.21275 Q 1.42751025390625 0.2585 1.42751025390625 0.3015 Q 1.42751025390625 0.35150000000000003 1.43051025390625 0.39025000000000004 Q 1.43351025390625 0.429 1.44001025390625 0.4565 Q 1.44951025390625 0.49750000000000005 1.46851025390625 0.517 Q 1.4875102539062501 0.5365 1.51751025390625 0.5365 Q 1.55051025390625 0.5365 1.5692602539062501 0.514 Q 1.58801025390625 0.49150000000000005 1.59551025390625 0.4505 Q 1.60301025390625 0.40950000000000003 1.60301025390625 0.35500000000000004 Q 1.60301025390625 0.335 1.60226025390625 0.30325 Q 1.60151025390625 0.2715 1.6005102539062501 0.23425 Q 1.59951025390625 0.19700000000000006 1.59801025390625 0.16049999999999998 Q 1.5965102539062501 0.124 1.59451025390625 0.09425000000000006 Q 1.5925102539062501 0.0645 1.59051025390625 0.04800000000000004 Q 1.61051025390625 0.04800000000000004 1.63676025390625 0.04974999999999996 Q 1.6630102539062501 0.05149999999999999 1.68876025390625 0.05349999999999999 Q 1.71451025390625 0.055499999999999994 1.7335102539062501 0.05800000000000005 Q 1.75251025390625 0.0605 1.7580102539062499 0.062000000000000055 Q 1.76251025390625 0.08850000000000002 1.76501025390625 0.11975000000000002 Q 1.76751025390625 0.15100000000000002 1.76901025390625 0.1845 Q 1.77051025390625 0.21800000000000003 1.77051025390625 0.2515 Q 1.77051025390625 0.35100000000000003 1.76026025390625 0.4375 Q 1.7500102539062499 0.524 1.72201025390625 0.58925 Q 1.69401025390625 0.6545 1.64201025390625 0.69125 Q 1.59001025390625 0.728 1.50751025390625 0.728 M 1.8695283203125 0.7010000000000001 Q 1.8695283203125 0.6815 1.8700283203125 0.6385000000000001 Q 1.8705283203125 0.5955 1.8717783203125 0.5387500000000001 Q 1.8730283203125 0.482 1.8745283203125 0.41900000000000004 Q 1.8760283203125 0.35600000000000004 1.8772783203125 0.29550000000000004 Q 1.8785283203125 0.235 1.8797783203125 0.18500000000000005 Q 1.8810283203125 0.135 1.8815283203125 0.10399999999999998 Q 1.8820283203125001 0.07299999999999995 1.8820283203125001 0.07000000000000006 Q 1.9100283203125 0.06800000000000006 1.9482783203125 0.0655 Q 1.9865283203125 0.06300000000000006 2.0287783203125 0.06125000000000003 Q 2.0710283203125 0.0595 2.1110283203125 0.0595 Q 2.1695283203124998 0.0595 2.2147783203125 0.07450000000000001 Q 2.2600283203125002 0.08950000000000002 2.2860283203125 0.123 Q 2.3120283203125 0.15649999999999997 2.3120283203125 0.21099999999999997 Q 2.3120283203125 0.251 2.2935283203125 0.281 Q 2.2750283203125 0.311 2.2485283203125 0.3295 Q 2.2220283203125 0.34800000000000003 2.1975283203125002 0.35300000000000004 Q 2.2000283203125 0.35300000000000004 2.2027783203125 0.35300000000000004 Q 2.2055283203125002 0.35300000000000004 2.2100283203125 0.35300000000000004 Q 2.2545283203125 0.35600000000000004 2.2882783203125 0.37475 Q 2.3220283203125 0.3935 2.3410283203124997 0.425 Q 2.3600283203125 0.4565 2.3600283203125 0.49750000000000005 Q 2.3600283203125 0.5645 2.3340283203125 0.6062500000000001 Q 2.3080283203125 0.648 2.2600283203125002 0.671 Q 2.2120283203125 0.6940000000000001 2.1457783203125 0.7025 Q 2.0795283203125 0.7110000000000001 2.0000283203125 0.7110000000000001 Q 1.9625283203125 0.7110000000000001 1.9280283203125 0.7085 Q 1.8935283203125 0.7060000000000001 1.8695283203125 0.7010000000000001 M 2.0340283203125 0.5625 Q 2.0385283203125 0.5630000000000001 2.0450283203125 0.5630000000000001 Q 2.0515283203125 0.5630000000000001 2.0595283203125 0.5630000000000001 Q 2.0865283203125 0.5630000000000001 2.1135283203125 0.5595 Q 2.1405283203125 0.556 2.1627783203125 0.548 Q 2.1850283203125 0.54 2.1985283203125 0.52575 Q 2.2120283203125 0.5115000000000001 2.2120283203125 0.49 Q 2.2120283203125 0.475 2.2057783203125 0.4635 Q 2.1995283203125 0.452 2.1865283203125 0.44425000000000003 Q 2.1735283203125 0.4365 2.1527783203125 0.43275 Q 2.1320283203125 0.429 2.1030283203125 0.429 Q 2.0945283203125 0.429 2.0820283203125 0.42925 Q 2.0695283203125 0.4295 2.0562783203125 0.43025 Q 2.0430283203125 0.431 2.0315283203125 0.4325 L 2.0340283203125 0.5625 M 2.0295283203125 0.306 Q 2.0560283203125 0.306 2.0720283203125 0.3045 Q 2.0880283203125 0.303 2.1000283203125 0.299 Q 2.1290283203125 0.29450000000000004 2.1532783203125 0.27775 Q 2.1775283203124998 0.261 2.1775283203124998 0.23250000000000004 Q 2.1775283203124998 0.20299999999999996 2.1570283203125 0.18825000000000003 Q 2.1365283203125 0.1735 2.1045283203125003 0.1735 Q 2.0860283203125 0.1735 2.0642783203125 0.17574999999999996 Q 2.0425283203125 0.17800000000000005 2.0265283203125 0.1805 L 2.0295283203125 0.306 M 2.4390146484375 0.7005 Q 2.4405146484375 0.673 2.4420146484375 0.62575 Q 2.4435146484375 0.5785 2.4445146484375 0.51925 Q 2.4455146484375 0.46 2.4455146484375 0.397 Q 2.4455146484375 0.334 2.4445146484375 0.27225 Q 2.4435146484375 0.21050000000000002 2.4420146484375 0.15800000000000003 Q 2.4405146484375 0.10550000000000004 2.4390146484375 0.07000000000000006 Q 2.4535146484375 0.06800000000000006 2.4845146484375 0.0655 Q 2.5155146484375 0.06300000000000006 2.5490146484375 0.06300000000000006 Q 2.5650146484375 0.06300000000000006 2.5865146484375 0.06400000000000006 Q 2.6080146484375 0.06500000000000006 2.6155146484375 0.0665 Q 2.6165146484375 0.09250000000000003 2.6162646484375 0.13250000000000006 Q 2.6160146484375 0.1725 2.6147646484375002 0.22200000000000003 Q 2.6135146484375 0.2715 2.6115146484375 0.32675000000000004 Q 2.6095146484375 0.382 2.6070146484375 0.4375 Q 2.6055146484375 0.467 2.6037646484375 0.49475 Q 2.6020146484375 0.5225 2.6000146484375 0.542 Q 2.6395146484375 0.5395 2.6780146484375003 0.538 Q 2.7165146484375002 0.5365 2.7552646484375 0.5355000000000001 Q 2.7940146484375 0.5345 2.8330146484375 0.5345 Q 2.8350146484375 0.5475 2.8365146484375 0.5755 Q 2.8380146484375 0.6035 2.8390146484375 0.63525 Q 2.8400146484375 0.667 2.8400146484375 0.6905 Q 2.7800146484375 0.6985 2.7187646484375 0.70225 Q 2.6575146484375 0.7060000000000001 2.6025146484375 0.7065 Q 2.5570146484375 0.7070000000000001 2.5147646484375 0.70525 Q 2.4725146484375 0.7035 2.4390146484375 0.7005 M 3.1439833984375 0.7585000000000001 Q 3.0679833984375 0.7585000000000001 3.0104833984375 0.73375 Q 2.9529833984375 0.7090000000000001 2.9212333984375 0.66025 Q 2.8894833984375 0.6115 2.8894833984375 0.539 Q 2.8894833984375 0.491 2.9044833984375 0.45325000000000004 Q 2.9194833984375 0.41550000000000004 2.9437333984375 0.38575000000000004 Q 2.9679833984375 0.35600000000000004 2.9962333984375 0.3335 Q 3.0244833984375 0.311 3.0509833984375 0.29400000000000004 Q 3.0399833984375 0.28350000000000003 3.0222333984375 0.2625 Q 3.0044833984375 0.2415 2.9907333984375 0.21199999999999997 Q 2.9769833984375 0.1825 2.9769833984375 0.14749999999999996 Q 2.9769833984375 0.09499999999999997 3.0029833984375 0.06274999999999997 Q 3.0289833984375 0.03049999999999997 3.0707333984375 0.015249999999999986 Q 3.1124833984375 0 3.1614833984375 0 Q 3.2089833984375 0 3.2464833984375 0.01824999999999999 Q 3.2839833984375 0.03649999999999998 3.3059833984375 0.0685 Q 3.3279833984375 0.10050000000000003 3.3279833984375 0.14249999999999996 Q 3.3279833984375 0.18000000000000005 3.3164833984375 0.20750000000000002 Q 3.3049833984375 0.235 3.2837333984375 0.25925000000000004 Q 3.2624833984375 0.28350000000000003 3.2319833984375 0.3095 Q 3.2444833984375 0.3235 3.2619833984375 0.34275 Q 3.2794833984375 0.362 3.2992333984375 0.38425000000000004 Q 3.3189833984375 0.40650000000000003 3.3397333984375 0.43 Q 3.3604833984375 0.4535 3.3804833984375 0.476 Q 3.3864833984375 0.46950000000000003 3.3947333984375 0.458 Q 3.4029833984374998 0.4465 3.4114833984375 0.43325 Q 3.4199833984375 0.42000000000000004 3.4269833984374998 0.40875 Q 3.4339833984375 0.3975 3.4364833984375 0.392 Q 3.4494833984374997 0.398 3.4674833984375 0.41100000000000003 Q 3.4854833984375 0.42400000000000004 3.5027333984375 0.43875000000000003 Q 3.5199833984374997 0.4535 3.5319833984375 0.466 Q 3.5279833984374998 0.47650000000000003 3.5154833984375 0.49450000000000005 Q 3.5029833984375003 0.5125 3.4887333984374997 0.53075 Q 3.4744833984375 0.549 3.4624833984375 0.5630000000000001 Q 3.4759833984375 0.5760000000000001 3.4902333984375 0.591 Q 3.5044833984375 0.606 3.5189833984375 0.621 Q 3.5334833984375003 0.636 3.5454833984375 0.6495 Q 3.5349833984375 0.6655 3.5197333984375 0.683 Q 3.5044833984375 0.7005 3.4877333984375 0.716 Q 3.4709833984375003 0.7315 3.4554833984375 0.7405 Q 3.4459833984375 0.729 3.4332333984375 0.71275 Q 3.4204833984375 0.6965 3.4079833984375 0.68025 Q 3.3954833984375 0.664 3.3864833984375 0.653 Q 3.3749833984375 0.6665 3.3539833984375 0.68475 Q 3.3329833984375 0.7030000000000001 3.3024833984375 0.71975 Q 3.2719833984375 0.7365 3.2322333984375 0.7475 Q 3.1924833984375 0.7585000000000001 3.1439833984375 0.7585000000000001 M 3.1509833984375 0.6415 Q 3.1769833984374998 0.6415 3.2009833984375 0.63375 Q 3.2249833984375 0.626 3.2452333984375 0.614 Q 3.2654833984375 0.602 3.2809833984375 0.58875 Q 3.2964833984375 0.5755 3.3049833984375 0.5650000000000001 Q 3.2859833984375 0.545 3.2629833984375 0.52 Q 3.2399833984375 0.495 3.2162333984375 0.468 Q 3.1924833984375 0.441 3.1704833984375 0.41575 Q 3.1484833984375 0.3905 3.1319833984375 0.3705 Q 3.1114833984375 0.385 3.0934833984375 0.40225 Q 3.0754833984375 0.41950000000000004 3.0617333984375 0.43975000000000003 Q 3.0479833984375 0.46 3.0402333984375 0.484 Q 3.0324833984375 0.508 3.0324833984375 0.5365 Q 3.0324833984375 0.5705 3.0477333984375 0.594 Q 3.0629833984375 0.6175 3.0899833984375 0.6295000000000001 Q 3.1169833984375 0.6415 3.1509833984375 0.6415 M 3.1489833984375 0.237 Q 3.1699833984375 0.22250000000000003 3.1872333984375 0.1965 Q 3.2044833984375 0.17049999999999998 3.2044833984375 0.14200000000000002 Q 3.2044833984375 0.121 3.1917333984375 0.10875000000000001 Q 3.1789833984375 0.09650000000000003 3.1554833984375 0.09650000000000003 Q 3.1364833984375 0.09650000000000003 3.1207333984375 0.10875000000000001 Q 3.1049833984375 0.121 3.1049833984375 0.14500000000000002 Q 3.1049833984375 0.17149999999999999 3.1197333984375 0.19674999999999998 Q 3.1344833984375002 0.22200000000000003 3.1489833984375 0.237 M 4.1164931640625 0.5955 Q 4.0914931640625 0.627 4.0552431640625 0.655 Q 4.0189931640625 0.683 3.9729931640625002 0.70075 Q 3.9269931640625 0.7185 3.8724931640625 0.7185 Q 3.8029931640625 0.7185 3.7494931640624998 0.69375 Q 3.6959931640625 0.669 3.6594931640625 0.6235 Q 3.6229931640625 0.5780000000000001 3.6042431640625 0.51625 Q 3.5854931640625 0.4545 3.5854931640625 0.381 Q 3.5854931640625 0.28550000000000003 3.6184931640625 0.21050000000000002 Q 3.6514931640625 0.13550000000000006 3.7144931640625 0.09250000000000003 Q 3.7774931640625 0.04949999999999999 3.8684931640625 0.04949999999999999 Q 3.9424931640625 0.04949999999999999 4.0057431640625 0.08074999999999999 Q 4.0689931640625 0.11199999999999999 4.1049931640625 0.1745 Q 4.0914931640625 0.1895 4.0692431640625 0.20775 Q 4.0469931640625 0.22600000000000003 4.0242431640625 0.24275000000000002 Q 4.0014931640625 0.2595 3.9849931640625 0.27 Q 3.9829931640625 0.2645 3.9752431640625 0.2515 Q 3.9674931640625 0.2385 3.9539931640625 0.22400000000000003 Q 3.9404931640625 0.20950000000000002 3.9199931640625 0.19925000000000004 Q 3.8994931640625 0.18900000000000006 3.8719931640625 0.18900000000000006 Q 3.8459931640625 0.18900000000000006 3.8249931640625 0.20174999999999998 Q 3.8039931640625 0.21450000000000002 3.7889931640625 0.2385 Q 3.7739931640625 0.2625 3.7659931640625 0.29550000000000004 Q 3.7579931640625 0.3285 3.7579931640625 0.369 Q 3.7579931640625 0.40750000000000003 3.7649931640625 0.4415 Q 3.7719931640625 0.47550000000000003 3.7854931640625 0.50175 Q 3.7989931640625 0.528 3.8202431640625 0.5425 Q 3.8414931640625 0.557 3.8694931640625 0.557 Q 3.8969931640625 0.557 3.9209931640624998 0.5467500000000001 Q 3.9449931640625 0.5365 3.9659931640625 0.5195000000000001 Q 3.9869931640625 0.5025000000000001 4.0044931640625 0.483 Q 4.0224931640625 0.49550000000000005 4.0444931640625 0.515 Q 4.0664931640625 0.5345 4.0862431640625 0.556 Q 4.1059931640625 0.5775 4.1164931640625 0.5955 M 4.468474609375 0.738 Q 4.363974609375 0.738 4.297724609375 0.6930000000000001 Q 4.231474609375 0.648 4.200224609375 0.5705 Q 4.168974609375 0.493 4.168974609375 0.396 Q 4.168974609375 0.29600000000000004 4.204224609375 0.21850000000000003 Q 4.239474609375 0.14100000000000001 4.306224609375 0.09675 Q 4.372974609375 0.05249999999999999 4.468474609375 0.05249999999999999 Q 4.547974609375 0.05249999999999999 4.604974609375 0.07899999999999996 Q 4.661974609375 0.10550000000000004 4.698224609375 0.15249999999999997 Q 4.734474609375 0.1995 4.751474609375 0.2615 Q 4.768474609375 0.3235 4.768474609375 0.3955 Q 4.768474609375 0.463 4.751224609375 0.5245 Q 4.733974609375 0.5860000000000001 4.697724609375 0.634 Q 4.661474609375 0.682 4.604724609375 0.7100000000000001 Q 4.547974609375 0.738 4.468474609375 0.738 M 4.469974609375 0.5780000000000001 Q 4.520974609375 0.5780000000000001 4.555224609375 0.55 Q 4.589474609375 0.522 4.606474609375 0.47675 Q 4.623474609375 0.4315 4.623474609375 0.38 Q 4.623474609375 0.342 4.615974609375 0.30675 Q 4.608474609375 0.2715 4.591974609375 0.244 Q 4.575474609375 0.21650000000000003 4.547474609375 0.2005 Q 4.519474609375 0.1845 4.478474609375 0.1845 Q 4.431974609375 0.1845 4.3984746093750005 0.21250000000000002 Q 4.364974609375 0.2405 4.346724609375 0.28775 Q 4.328474609375 0.335 4.328474609375 0.3935 Q 4.328474609375 0.4455 4.342224609375 0.48725 Q 4.355974609375 0.529 4.387224609375 0.5535 Q 4.418474609375 0.5780000000000001 4.469974609375 0.5780000000000001" fill="#ffffff" fill-rule="nonzero"></path></g><g transform="matrix(1,0,0,1,0,0)"></g></g><defs><clipPath id="SvgjsClipPath1002"><path d=" M -1.0999999999999996 -0.9267030297256098 h 7.013476562499999 v 2.5659060594512195 h -7.013476562499999 Z"></path></clipPath></defs></svg>